<?xml version="1.0" encoding="UTF-8" standalone="no"?>
<svg
   xmlns:dc="http://purl.org/dc/elements/1.1/"
   xmlns:cc="http://creativecommons.org/ns#"
   xmlns:rdf="http://www.w3.org/1999/02/22-rdf-syntax-ns#"
   xmlns:svg="http://www.w3.org/2000/svg"
   xmlns="http://www.w3.org/2000/svg"
   xmlns:sodipodi="http://sodipodi.sourceforge.net/DTD/sodipodi-0.dtd"
   xmlns:inkscape="http://www.inkscape.org/namespaces/inkscape"
   version="1.0"
   id="Layer_1"
   x="0px"
   y="0px"
   viewBox="0 0 282.3 60.9"
   height="38px"
   width="176px"
   enable-background="new 0 0 282.3 60.9"
   xml:space="preserve"
   inkscape:version="0.48.5 r10040"
   sodipodi:docname="saleor_logo.svg"><metadata
     id="metadata8"><rdf:RDF><cc:Work
         rdf:about=""><dc:format>image/svg+xml</dc:format><dc:type
           rdf:resource="http://purl.org/dc/dcmitype/StillImage" /><dc:title></dc:title></cc:Work></rdf:RDF></metadata><defs
     id="defs6" /><sodipodi:namedview
     pagecolor="#ffffff"
     bordercolor="#666666"
     borderopacity="1"
     objecttolerance="10"
     gridtolerance="10"
     guidetolerance="10"
     inkscape:pageopacity="0"
     inkscape:pageshadow="2"
     inkscape:window-width="1280"
     inkscape:window-height="985"
     id="namedview4"
     showgrid="false"
     inkscape:zoom="1.7670455"
     inkscape:cx="76.115756"
     inkscape:cy="19"
     inkscape:window-x="0"
     inkscape:window-y="0"
     inkscape:window-maximized="1"
     inkscape:current-layer="Layer_1" /><path
     fill="white"
     id="XMLID_124_"
     d="M267.7,37.7c6.1-2.8,10-9.2,10-16.7c0-5.7-2-10.1-6.2-14.1c-4.1-4-9.1-5.7-14.9-5.7h-27.2v15.9  c-1-2.9-3.5-5.7-6.1-8.2C217,3,209.5,0,200.4,0s-16.5,3-22.9,8.9c-1.2,1.1-2.1,2.3-3.1,3.5V1.2h-43v44h-19v-44h-16v47.2L77.3,1.2  H62.6L48.4,35.8c-1.8-4.7-6-8.2-13.2-10.8c-3.7-1.4-8.4-2.8-10.4-3.2c-1-0.3-2-0.6-3-1c-1.8-0.8-2.4-1.7-2.4-3.4  c0-2.1,2.3-3.6,6.4-3.6c4.5,0,8,1.5,10.6,4.6l10.6-9C42.3,3.1,35,0,25.3,0c-5.8,0-10.8,1.5-14.9,4.6c-4.1,3.1-6.2,7.4-6.2,13  c0,7.9,4.6,13.6,13.6,17c2.8,1,7,2.3,9.3,3c1.2,0.3,2.4,0.8,3.5,1.2c2.3,0.9,3.3,2,3.3,3.6c0,2.8-2.6,4.2-7.9,4.2  c-6.2,0-11.6-3-14.7-7.3L0,48c2.3,3.5,5.5,6.4,9.7,8.9c4.3,2.4,9.7,3.6,16.3,3.6c5.3,0,9.7-1.1,13.3-2.7l-0.6,1.4h16.9l3.1-7h22.6  l3,7h91.1v-9.9c0,0.9,1.4,1.8,2.3,2.7c6.3,5.9,13.8,8.9,22.9,8.9s16.4-3,22.7-8.9c2.7-2.5,5.1-5.3,6.1-8.2v15.5h16v-18h6.4h0.2  l12,18h18.4L267.7,37.7z M62.8,39.2L69.9,21L77,39.2H62.8z M147.4,15.2h24.9c-1.6,3-2.7,5-3.4,8h-21.5V15.2z M147.4,45.2v-9h21.3  c0.6,4,1.8,6,3.5,9H147.4z M211.9,41.8c-3.1,3.1-6.9,4.7-11.3,4.7c-4.5,0-8.3-1.5-11.4-4.6c-3.1-3.1-4.6-6.9-4.6-11.4  c0-4.4,1.6-8.2,4.7-11.3c3.1-3.2,6.9-4.8,11.3-4.8s8.2,1.6,11.3,4.8c3.2,3.2,4.8,7,4.8,11.3C216.7,34.8,215.1,38.6,211.9,41.8z   M254.8,28.2h-9.4v-13h10.7c3.1,0,5.6,2.4,5.6,6.2C261.7,25.8,259.1,28.2,254.8,28.2z"
     style="fill:#ffffff;fill-opacity:0.00925926" /><text
     xml:space="preserve"
     style="font-size:28px;font-style:normal;font-weight:normal;text-align:start;line-height:523.00000191%;letter-spacing:0px;word-spacing:0px;text-anchor:start;fill:#000000;fill-opacity:1;stroke:none;font-family:Sans"
     x="39.788292"
     y="18.758842"
     id="text3753"
     sodipodi:linespacing="523%"
     transform="matrix(1.6039773,0,0,1.6039773,0,-0.02556818)"><tspan
       sodipodi:role="line"
       id="tspan3755"
       x="39.788292"
       y="18.758842"
       style="font-size:22px;font-style:normal;font-variant:normal;font-weight:normal;font-stretch:normal;text-align:start;line-height:523.00000191%;text-anchor:start;font-family:Painter PERSONAL USE ONLY;-inkscape-font-specification:Painter PERSONAL USE ONLY" /></text>
<text
     xml:space="preserve"
     style="font-size:28px;font-style:normal;font-weight:normal;line-height:125%;letter-spacing:0px;word-spacing:0px;fill:#000000;fill-opacity:1;stroke:none;font-family:Sans"
     x="29.427652"
     y="35.170418"
     id="text3765"
     sodipodi:linespacing="125%"
     transform="matrix(1.6039773,0,0,1.6039773,0,-0.02556818)"><tspan
       sodipodi:role="line"
       id="tspan3767"
       x="29.427652"
       y="35.170418" /></text>
<text
     xml:space="preserve"
     style="font-size:28px;font-style:normal;font-weight:normal;line-height:125%;letter-spacing:0px;word-spacing:0px;fill:#000000;fill-opacity:1;stroke:none;font-family:Sans"
     x="34.520901"
     y="32.906754"
     id="text3769"
     sodipodi:linespacing="125%"
     transform="matrix(1.6039773,0,0,1.6039773,0,-0.02556818)"><tspan
       sodipodi:role="line"
       id="tspan3771"
       x="34.520901"
       y="32.906754"
       style="font-size:16px;font-style:normal;font-variant:normal;font-weight:normal;font-stretch:normal;font-family:Painter PERSONAL USE ONLY;-inkscape-font-specification:Painter PERSONAL USE ONLY" /></text>
<text
     xml:space="preserve"
     style="font-size:51.32727432000000078px;font-style:normal;font-variant:normal;font-weight:normal;font-stretch:normal;text-align:start;line-height:125%;letter-spacing:0px;word-spacing:0px;writing-mode:lr-tb;text-anchor:start;fill:#0f67f4;fill-opacity:1;stroke:none;font-family:Painter PERSONAL USE ONLY;-inkscape-font-specification:Painter PERSONAL USE ONLY"
     x="37.216396"
     y="41.863514"
     id="text3773"
     sodipodi:linespacing="125%"><tspan
       sodipodi:role="line"
       x="37.216396"
       y="41.863514"
       style="font-size:51.32727432000000078px;font-style:normal;font-variant:normal;font-weight:normal;font-stretch:normal;text-align:start;line-height:125%;writing-mode:lr-tb;text-anchor:start;fill:#0f67f4;fill-opacity:1;font-family:Painter PERSONAL USE ONLY;-inkscape-font-specification:Painter PERSONAL USE ONLY"
       id="tspan3777">Intelight</tspan></text>
</svg>